<svg height="200pt" preserveAspectRatio="xMidYMid meet" viewBox="0 0 200 200" width="200pt" xmlns="http://www.w3.org/2000/svg"><path d="m254 1821c-142-7-171-17-198-69-25-49-29-97-12-156 32-108 580-1172 633-1228 34-35 125-83 193-99 166-40 384 10 471 109 35 40 122 211 294 582 70 151 173 370 228 485 108 228 120 274 83 330-32 48-71 57-254 53l-165-3-29-35c-17-19-88-161-159-315-70-154-131-279-135-278s-53 118-108 260c-56 142-112 273-126 291-13 17-44 42-69 55-44 21-59 22-281 23-129 0-294-2-366-5zm1582-124c3-3-34-88-82-189-47-100-125-266-171-368-150-327-313-654-340-682-95-99-359-105-462-9-45 41-162 257-447 825-145 289-175 355-172 385l3 36 334 3c280 2 338 0 357-12 16-11 50-86 119-263 132-336 134-341 163-363 15-12 40-20 63-20 70 0 92 33 239 355 73 160 138 296 144 304 8 11 35 13 129 8 65-3 121-7 123-10z" transform="matrix(.1 0 0 -.1 0 200)"/></svg>